<?xml version="1.0" standalone="no"?>
<!DOCTYPE svg PUBLIC "-//W3C//DTD SVG 1.1//EN" "http://www.w3.org/Graphics/SVG/1.1/DTD/svg11.dtd">
<svg t="1656487404952" class="icon" viewBox="0 0 1024 1024" version="1.1" xmlns="http://www.w3.org/2000/svg" p-id="10467" xmlns:xlink="http://www.w3.org/1999/xlink" width="128" height="128">
  <defs>
    <style type="text/css"></style>
  </defs>
  <path d="M983.771429 367.542857a510.514286 510.514286 0 0 0-109.714286-162.742857 510.514286 510.514286 0 0 0-162.742857-109.714286C648.114286 68.342857 581.142857 54.857143 512 54.857143s-136.114286 13.485714-199.314286 40.228571a510.514286 510.514286 0 0 0-162.742857 109.714286 510.514286 510.514286 0 0 0-109.714286 162.742857C13.485714 430.742857 0 497.714286 0 566.857143c0 151.657143 66.628571 294.514286 182.742857 392.114286l1.942857 1.6c6.628571 5.485714 14.971429 8.571429 23.542857 8.571428h607.657143c8.571429 0 16.914286-3.085714 23.542857-8.571428l1.942858-1.6C957.371429 861.371429 1024 718.514286 1024 566.857143c0-69.142857-13.6-136.114286-40.228571-199.314286zM477.714286 192c0-5.028571 4.114286-9.142857 9.142857-9.142857h50.285714c5.028571 0 9.142857 4.114286 9.142857 9.142857v91.428571c0 5.028571-4.114286 9.142857-9.142857 9.142858h-50.285714c-5.028571 0-9.142857-4.114286-9.142857-9.142858v-91.428571zM235.428571 592c0 5.028571-4.114286 9.142857-9.142857 9.142857h-91.428571c-5.028571 0-9.142857-4.114286-9.142857-9.142857v-50.285714c0-5.028571 4.114286-9.142857 9.142857-9.142857h91.428571c5.028571 0 9.142857 4.114286 9.142857 9.142857v50.285714z m103.657143-233.714286l-35.542857 35.542857a9.177143 9.177143 0 0 1-12.914286 0L225.942857 329.142857a9.177143 9.177143 0 0 1 0-12.914286l35.542857-35.542857c3.542857-3.542857 9.371429-3.542857 12.914286 0l64.685714 64.685715c3.542857 3.542857 3.542857 9.371429 0 12.914285z m332.685715 95.542857l-96.571429 96.571429c5.714286 21.371429 0.228571 45.028571-16.571429 61.828571a63.942857 63.942857 0 0 1-90.514285 0 63.942857 63.942857 0 0 1 0-90.514285 63.851429 63.851429 0 0 1 61.828571-16.571429l96.571429-96.571428c3.542857-3.542857 9.371429-3.542857 12.914285 0l32.342858 32.342857c3.542857 3.542857 3.542857 9.257143 0 12.914285z m49.142857-59.885714l-35.542857-35.542857a9.177143 9.177143 0 0 1 0-12.914286l64.685714-64.685714c3.542857-3.542857 9.371429-3.542857 12.914286 0l35.542857 35.542857c3.542857 3.542857 3.542857 9.371429 0 12.914286l-64.685715 64.685714a9.177143 9.177143 0 0 1-12.914285 0zM893.714286 592c0 5.028571-4.114286 9.142857-9.142857 9.142857h-91.428572c-5.028571 0-9.142857-4.114286-9.142857-9.142857v-50.285714c0-5.028571 4.114286-9.142857 9.142857-9.142857h91.428572c5.028571 0 9.142857 4.114286 9.142857 9.142857v50.285714z" p-id="10468">
  </path>
</svg>
