<svg height="128" viewBox="0 0 1024 1024" width="128" xmlns="http://www.w3.org/2000/svg"><path d="m408 442h480a8 8 0 0 0 8-8v-56a8 8 0 0 0 -8-8h-480a8 8 0 0 0 -8 8v56a8 8 0 0 0 8 8zm-8 204a8 8 0 0 0 8 8h480a8 8 0 0 0 8-8v-56a8 8 0 0 0 -8-8h-480a8 8 0 0 0 -8 8zm504-486h-784a8 8 0 0 0 -8 8v56a8 8 0 0 0 8 8h784a8 8 0 0 0 8-8v-56a8 8 0 0 0 -8-8zm0 632h-784a8 8 0 0 0 -8 8v56a8 8 0 0 0 8 8h784a8 8 0 0 0 8-8v-56a8 8 0 0 0 -8-8zm-761.6-149.9 156.3-123.1a8.8 8.8 0 0 0 0-13.9l-156.3-123.2a8.9 8.9 0 0 0 -14.4 6.9v246.3a8.9 8.9 0 0 0 14.4 7z"/></svg>