<?xml version="1.0" standalone="no"?><!DOCTYPE svg PUBLIC "-//W3C//DTD SVG 1.1//EN" "http://www.w3.org/Graphics/SVG/1.1/DTD/svg11.dtd"><svg t="1657528703913" class="icon" viewBox="0 0 1024 1024" version="1.1" xmlns="http://www.w3.org/2000/svg" p-id="19695" xmlns:xlink="http://www.w3.org/1999/xlink" width="128" height="128"><defs><style type="text/css"></style></defs><path d="M843.066673 239.211127 178.540837 239.211127c-21.533432 0-39.153742 17.524119-39.153742 39.134299l0 606.053096c0 43.220361 34.954093 78.096682 78.097706 78.096682l586.637907 0c43.258223 0 78.097706-34.954093 78.097706-78.096682l0-606.053096C882.221438 256.735246 864.696296 239.211127 843.066673 239.211127zM334.869279 659.404188c0 16.244986-13.019525 29.418007-29.321816 29.418007-16.208147 0-29.321816-13.038968-29.321816-29.418007L276.225647 405.466662c0-16.244986 13.019525-29.416983 29.321816-29.416983 16.207124 0 29.321816 13.037944 29.321816 29.416983L334.869279 659.404188zM549.900703 776.770246c0 16.207124-13.019525 29.340235-29.321816 29.340235-16.208147 0-29.322839-13.036921-29.322839-29.340235L491.256048 366.2945c0-16.208147 13.020548-29.342282 29.322839-29.342282 16.207124 0 29.321816 13.038968 29.321816 29.342282L549.900703 776.770246zM764.932128 659.404188c0 16.244986-13.020548 29.418007-29.322839 29.418007-16.207124 0-29.321816-13.038968-29.321816-29.418007L706.287473 405.466662c0-16.244986 13.019525-29.416983 29.321816-29.416983 16.208147 0 29.322839 13.037944 29.322839 29.416983L764.932128 659.404188z" p-id="19696"></path><path d="M139.387096 170.792874c0-16.188704 13.20986-29.322839 29.341259-29.322839l684.150802 0c16.188704 0 29.342282 13.020548 29.342282 29.322839 0 16.187681-13.210883 29.321816-29.342282 29.321816L168.728354 200.11469C152.53965 200.11469 139.387096 187.096189 139.387096 170.792874z" p-id="19697"></path><path d="M413.062152 102.373599c0-21.590737 17.353227-39.096437 39.078017-39.096437l117.328195 0c21.571295 0 39.076994 17.353227 39.076994 39.096437l0 39.096437-195.482183 0L413.063175 102.373599z" p-id="19698"></path></svg>