<?xml version="1.0" standalone="no"?><!DOCTYPE svg PUBLIC "-//W3C//DTD SVG 1.1//EN" "http://www.w3.org/Graphics/SVG/1.1/DTD/svg11.dtd"><svg t="1657528555593" class="icon" viewBox="0 0 1024 1024" version="1.1" xmlns="http://www.w3.org/2000/svg" p-id="4973" xmlns:xlink="http://www.w3.org/1999/xlink" width="128" height="128"><defs><style type="text/css"></style></defs><path d="M472.8 756.2c0-75.2 35.5-143.5 91.1-187-3.2 1.6-6.9 2.6-10.6 2.6H296.5c-12.7 0-23.3-10.6-23.3-23.3s10.6-23.3 23.3-23.3h256.3c12.7 0 23.3 10.6 23.3 23.3 0 6.4-2.6 11.7-6.4 15.9 37.1-27.5 82.6-43.4 131.9-43.4 61.4 0 126 19.1 167.4 58.3V101.1c0-20.7-16.4-37.1-37.1-37.1H163c-20.7 0-37.1 16.4-37.1 37.1v798.6c0 20.7 16.4 37.1 37.1 37.1h394c-53.5-41.9-84.2-107-84.2-180.6zM296.5 237.7h399.3c12.7 0 23.3 10.6 23.3 23.3 0 12.7-10.6 23.3-23.3 23.3H296.5c-12.7 0-23.3-10.6-23.3-23.3 0-12.7 10.6-23.3 23.3-23.3z m0 144h399.3c12.7 0 23.3 10.6 23.3 23.3 0 12.7-10.6 23.3-23.3 23.3H296.5c-12.7 0-23.3-10.6-23.3-23.3 0-12.7 10.6-23.3 23.3-23.3z" p-id="4974"></path><path d="M569.7 564.5l-6.4 4.8c2.7-1.1 4.9-2.7 6.4-4.8zM711.7 553.9c-111.7 0-202.8 90.6-202.8 202.8 0 111.7 90.6 202.8 202.8 202.8 111.7 0 202.8-90.6 202.8-202.8s-91.1-202.8-202.8-202.8z m107.2 182L796 747.2c-7.2 4-13.3 9.7-17.7 16.7L729 850.8c-0.6 1.2-1.3 2.2-2.3 3-3.8 3.3-9.6 2.9-12.9-1l-36.9-37.1-77.9 50.6 52.7-75.8-32.1-32.3c-1.1-0.9-1.9-2.1-2.5-3.4-1.8-4.5 0.4-9.6 4.8-11.4l89.8-46.5c7-4.1 12.5-10.4 15.8-17.8l9.7-26c0.4-1.8 1.4-3.4 2.9-4.5 3.3-2.5 8-1.8 10.5 1.5l70.8 71.1c1.2 1 2 2.2 2.6 3.6 1.5 4.5-0.7 9.4-5.1 11.1z" p-id="4975"></path></svg>