<?xml version="1.0" standalone="no"?><!DOCTYPE svg PUBLIC "-//W3C//DTD SVG 1.1//EN" "http://www.w3.org/Graphics/SVG/1.1/DTD/svg11.dtd"><svg t="1661329133844" class="icon" viewBox="0 0 1024 1024" version="1.1" xmlns="http://www.w3.org/2000/svg" p-id="1253" xmlns:xlink="http://www.w3.org/1999/xlink" width="128" height="128"><defs><style type="text/css"></style></defs><path d="M920.64 216.07a32.37 32.37 0 0 0-35.94-36.41c-99.41-1.93-198.92 0-298.53-0.87v-76.2H530.5c-142.67 26.01-285.43 50.86-428.1 76.39V845.6c141.99 25.43 283.98 49.7 425.98 75.81h57.8v-74.85h279.36c15.89-0.96 33.43 0 47.01-9.63 10.89-17.24 8.09-38.53 9.05-57.8-0.96-187.37 0.68-375.4-0.96-563.06zM449.16 669.2H242.44V378.76h205.95v51.47h-145v62.23h138.9v51.47h-138.9v73.79h153.22l-7.45 51.48z m444.12 147.78H586.17v-76.2h241.98v-38.53H586.17v-47.2h241.98v-38.54H586.17v-47.2h241.98v-38.53H586.17v-48.16h241.98v-37.09H586.17v-48.16h241.98V359.8H586.17v-47.68h241.98v-38.05H586.17V207.4h307.11v609.58z" p-id="1254"></path></svg>