<?xml version="1.0" standalone="no"?><!DOCTYPE svg PUBLIC "-//W3C//DTD SVG 1.1//EN" "http://www.w3.org/Graphics/SVG/1.1/DTD/svg11.dtd"><svg t="1660208890876" class="icon" viewBox="0 0 1024 1024" version="1.1" xmlns="http://www.w3.org/2000/svg" p-id="9865" xmlns:xlink="http://www.w3.org/1999/xlink" width="128" height="128"><defs><style type="text/css"></style></defs><path d="M903.4 156H120.6C69.6 156 28 197.6 28 248.6v431c0 51 41.6 92.6 92.6 92.6h783c51 0 92.6-41.6 92.6-92.6V248.6C996 197.6 954.4 156 903.4 156zM940 679.4c0 20.2-16.4 36.6-36.6 36.6H120.6c-20.2 0-36.6-16.4-36.6-36.6V248.6c0-20.2 16.4-36.6 36.6-36.6h783c20.2 0 36.6 16.4 36.6 36.6v430.8z" p-id="9866"></path><path d="M872 256H152c-13.2 0-24 10.8-24 24v368c0 13.2 10.8 24 24 24h720c13.2 0 24-10.8 24-24V280c0-13.2-10.8-24-24-24z m-132 556H284c-15.4 0-28 12.6-28 28s12.6 28 28 28h456c15.4 0 28-12.6 28-28s-12.6-28-28-28z" p-id="9867"></path></svg>