<?xml version="1.0" standalone="no"?><!DOCTYPE svg PUBLIC "-//W3C//DTD SVG 1.1//EN" "http://www.w3.org/Graphics/SVG/1.1/DTD/svg11.dtd"><svg t="1660719633230" class="icon" viewBox="0 0 1122 1024" version="1.1" xmlns="http://www.w3.org/2000/svg" p-id="16566" xmlns:xlink="http://www.w3.org/1999/xlink" width="140.25" height="128"><defs><style type="text/css"></style></defs><path d="M644.677741 760.345515L765.448505 697.408638l-74.843854-74.843854-62.936877 120.770764c-6.803987 11.906977 5.10299 23.813953 17.009967 17.009967z" p-id="16567"></path><path d="M731.428571 3.401993H374.219269C192.212625 3.401993 44.225914 151.388704 44.225914 335.096346v357.209302c0 183.707641 147.986711 331.694352 331.694352 331.694352h357.209302c183.707641 0 331.694352-147.986711 331.694352-331.694352v-357.209302C1064.82392 151.388704 915.136213 3.401993 731.428571 3.401993zM496.69103 848.797342H304.478405c-32.318937 0-57.833887-25.51495-57.833887-57.833887V236.438538c0-32.318937 25.51495-57.833887 57.833887-57.833887h469.475083c32.318937 0 57.833887 25.51495 57.833887 57.833887v192.212625c0 23.813953-18.710963 42.524917-42.524917 42.524917V278.963455c0-32.318937-25.51495-57.833887-57.833887-57.833887H347.003322c-32.318937 0-57.833887 25.51495-57.833887 57.833887V748.438538c0 32.318937 25.51495 57.833887 57.833887 57.833887h108.863788c22.112957 0 40.82392 18.710963 40.82392 42.524917z m-166.697675-377.621262v-42.524917h355.508306c11.906977 0 20.41196 10.20598 20.41196 20.41196 0 11.906977-10.20598 20.41196-20.41196 20.41196H329.993355z m251.747509 105.461794c0 11.906977-10.20598 20.41196-20.41196 20.41196H329.993355v-42.524917h229.634552c11.906977 0 22.112957 10.20598 22.112957 22.112957zM329.993355 345.302326v-42.524917h229.634552c11.906977 0 20.41196 10.20598 20.41196 20.41196 0 11.906977-10.20598 20.41196-20.41196 20.41196H329.993355z m464.372094 381.023255l-221.129569 105.461794c-11.906977 5.10299-23.813953-6.803987-18.710963-18.710963l105.461794-221.129568 255.149502-120.770764-120.770764 255.149501z" p-id="16568"></path></svg>