<?xml version="1.0" standalone="no"?><!DOCTYPE svg PUBLIC "-//W3C//DTD SVG 1.1//EN" "http://www.w3.org/Graphics/SVG/1.1/DTD/svg11.dtd"><svg t="1658283387522" class="icon" viewBox="0 0 1024 1024" version="1.1" xmlns="http://www.w3.org/2000/svg" p-id="49027" xmlns:xlink="http://www.w3.org/1999/xlink" width="128" height="128"><defs><style type="text/css"></style></defs><path d="M93.184 0A93.44 93.44 0 0 0 0 93.184v92.928a93.44 93.44 0 0 0 93.184 93.184h837.632A93.44 93.44 0 0 0 1024 186.112V93.184A93.44 93.44 0 0 0 930.816 0zM0 558.592a93.184 93.184 0 0 0 93.184 92.928h92.928a93.184 93.184 0 0 0 93.184-92.928v-93.184a93.184 93.184 0 0 0-93.184-92.928H93.184A93.184 93.184 0 0 0 0 465.408z m372.48 0a93.184 93.184 0 0 0 92.928 92.928h93.184a93.184 93.184 0 0 0 92.928-92.928v-93.184a93.184 93.184 0 0 0-92.928-92.928h-93.184a93.184 93.184 0 0 0-92.928 92.928z m372.224 0a93.184 93.184 0 0 0 93.184 92.928h92.928A93.184 93.184 0 0 0 1024 558.592v-93.184a93.184 93.184 0 0 0-93.184-92.928h-92.928a93.184 93.184 0 0 0-93.184 92.928zM0 930.816A93.44 93.44 0 0 0 93.184 1024h92.928a93.44 93.44 0 0 0 93.184-93.184v-92.928a93.44 93.44 0 0 0-93.184-93.184H93.184A93.44 93.44 0 0 0 0 837.888z m372.48 0A93.184 93.184 0 0 0 465.408 1024h93.184a93.184 93.184 0 0 0 92.928-93.184v-92.928a93.184 93.184 0 0 0-92.928-93.184h-93.184a93.184 93.184 0 0 0-92.928 93.184z m372.224 0A93.44 93.44 0 0 0 837.888 1024h92.928A93.44 93.44 0 0 0 1024 930.816v-92.928a93.44 93.44 0 0 0-93.184-93.184h-92.928a93.44 93.44 0 0 0-93.184 93.184z m0 0" p-id="49028"></path></svg>