<?xml version="1.0" standalone="no"?>
<!DOCTYPE svg PUBLIC "-//W3C//DTD SVG 1.1//EN" "http://www.w3.org/Graphics/SVG/1.1/DTD/svg11.dtd">
<svg t="1656579225711" class="icon" viewBox="0 0 1024 1024" version="1.1" xmlns="http://www.w3.org/2000/svg" p-id="13295" xmlns:xlink="http://www.w3.org/1999/xlink" width="128" height="128">
  <defs>
    <style type="text/css"></style>
  </defs>
  <path d="M739.538944 568.905728c94.26432 0 170.665984 76.345344 170.665984 170.667008 0 94.26432-76.40064 170.667008-170.665984 170.667008s-170.667008-76.402688-170.667008-170.667008c0-94.321664 76.401664-170.667008 170.667008-170.667008z m56.905728-455.12704c31.459328 0 56.88832 25.427968 56.88832 56.88832v372.905984C819.712 524.004352 781.19936 512 739.556352 512 613.888 512 512 613.888 512 739.555328c0 68.323328 30.777344 128.96768 78.507008 170.667008H227.555328c-31.459328 0-56.88832-25.428992-56.88832-56.889344V170.667008c0-31.460352 25.428992-56.889344 56.88832-56.889344z m-56.905728 513.608704c-15.54432 0-28.189696 12.546048-28.440576 27.97568l-0.004096 0.468992v72.875008c0 14.912512 5.85728 29.16352 16.208896 39.755776l0.459776 0.464896 55.124992 55.181312c11.092992 11.094016 29.126656 11.094016 40.220672 0 10.9824-10.9824 11.091968-28.766208 0.328704-39.8848l-0.328704-0.334848-55.126016-55.18336v-72.873984c0-15.644672-12.686336-28.444672-28.443648-28.444672zM426.665984 512h-113.77664c-15.702016 0-28.444672 12.742656-28.444672 28.444672 0 15.700992 12.742656 28.444672 28.444672 28.444672h113.77664c15.702016 0 28.444672-12.74368 28.444672-28.444672C455.110656 524.742656 442.368 512 426.667008 512z m113.778688-113.777664H312.889344c-15.702016 0-28.444672 12.742656-28.444672 28.444672 0 15.700992 12.742656 28.443648 28.444672 28.443648h227.555328c15.700992 0 28.444672-12.742656 28.444672-28.443648 0-15.702016-12.74368-28.444672-28.444672-28.444672z m113.77664-113.777664H312.890368c-15.702016 0-28.444672 12.742656-28.444672 28.444672 0 15.700992 12.742656 28.443648 28.444672 28.443648h341.332992c15.700992 0 28.444672-12.742656 28.444672-28.443648 0-15.702016-12.74368-28.444672-28.444672-28.444672z" p-id="13296"></path>
</svg>
